<svg width="1080" height="342" viewBox="0 0 1080 342" fill="none" xmlns="http://www.w3.org/2000/svg">
  <g filter="url(#filter0_d)">
    <path d="M170.167 35L262.333 129.048L170.167 223.095L78 129.048L170.167 35Z" fill="#222222" />
    <rect x="78" y="129.048" width="184.333" height="142.952" fill="#222222" />
  </g>
  <path
    d="M380.312 58.344L414.296 129H401.912L395.864 115.176H363.512L357.464 129H345.464L379.256 58.344H380.312ZM375.512 88.392L367.832 105.48H391.64L384.056 88.488L379.928 78.792H379.736L375.512 88.392ZM455.439 129L441.231 102.312C438.287 102.44 435.663 102.504 433.359 102.504H430.671V129H420.207V58.44H436.239C444.367 58.44 451.055 60.136 456.303 63.528C461.551 66.856 464.175 72.296 464.175 79.848C464.175 84.584 463.055 88.68 460.815 92.136C458.639 95.528 455.375 98.152 451.023 100.008L467.823 129H455.439ZM437.487 93.768C443.759 93.768 448.047 92.424 450.351 89.736C452.719 86.984 453.903 83.72 453.903 79.944C453.903 71.56 448.303 67.368 437.103 67.368H430.671V93.768H437.487ZM510.865 129.672C503.569 129.672 497.233 128.04 491.857 124.776C486.545 121.512 482.481 117.16 479.665 111.72C476.849 106.216 475.441 100.168 475.441 93.576C475.441 86.6 476.945 80.36 479.953 74.856C483.025 69.352 487.313 65.064 492.817 61.992C498.321 58.856 504.561 57.288 511.537 57.288C514.673 57.288 517.585 57.64 520.273 58.344C523.025 58.984 525.297 59.752 527.089 60.648C528.881 61.48 530.065 62.184 530.641 62.76L525.937 72.36C522.033 68.904 516.945 67.176 510.673 67.176C506.257 67.176 502.257 68.264 498.673 70.44C495.089 72.616 492.273 75.72 490.225 79.752C488.177 83.784 487.153 88.456 487.153 93.768C487.153 98.632 488.049 103.048 489.841 107.016C491.697 110.984 494.385 114.12 497.905 116.424C501.425 118.728 505.617 119.88 510.481 119.88C516.113 119.88 521.553 118.28 526.801 115.08L529.969 124.2C528.561 125.48 525.969 126.728 522.193 127.944C518.481 129.096 514.705 129.672 510.865 129.672ZM541.048 58.44H551.8V87.24H576.664V58.44H587.416V129H576.664V96.264H551.8V129H541.048V58.44ZM603.517 58.44H614.269V129H603.517V58.44ZM643.928 67.848H625.88V58.44H672.824V67.848H654.584V129H643.928V67.848ZM683.08 58.44H713.992V67.848H693.736V87.336H710.056V96.936H693.736V119.496H717.16V129H683.08V58.44ZM760.052 129.672C752.756 129.672 746.42 128.04 741.044 124.776C735.732 121.512 731.668 117.16 728.852 111.72C726.036 106.216 724.628 100.168 724.628 93.576C724.628 86.6 726.132 80.36 729.14 74.856C732.212 69.352 736.5 65.064 742.004 61.992C747.508 58.856 753.748 57.288 760.724 57.288C763.86 57.288 766.772 57.64 769.46 58.344C772.212 58.984 774.484 59.752 776.276 60.648C778.068 61.48 779.252 62.184 779.828 62.76L775.124 72.36C771.22 68.904 766.132 67.176 759.86 67.176C755.444 67.176 751.444 68.264 747.86 70.44C744.276 72.616 741.46 75.72 739.412 79.752C737.364 83.784 736.34 88.456 736.34 93.768C736.34 98.632 737.236 103.048 739.028 107.016C740.884 110.984 743.572 114.12 747.092 116.424C750.612 118.728 754.804 119.88 759.668 119.88C765.3 119.88 770.74 118.28 775.988 115.08L779.156 124.2C777.748 125.48 775.156 126.728 771.38 127.944C767.668 129.096 763.892 129.672 760.052 129.672ZM805.647 67.848H787.599V58.44H834.543V67.848H816.303V129H805.647V67.848ZM867.307 129.96C858.475 129.96 852.075 127.304 848.107 121.992C844.139 116.68 842.155 108.968 842.155 98.856V58.44H852.907V99.048C852.907 106.536 854.027 111.912 856.267 115.176C858.507 118.376 862.187 119.976 867.307 119.976C872.427 119.976 876.075 118.408 878.251 115.272C880.491 112.072 881.611 106.664 881.611 99.048V58.44H892.459V98.856C892.459 108.904 890.347 116.616 886.123 121.992C881.963 127.304 875.691 129.96 867.307 129.96ZM941.814 129L927.606 102.312C924.662 102.44 922.038 102.504 919.734 102.504H917.046V129H906.582V58.44H922.614C930.742 58.44 937.43 60.136 942.678 63.528C947.926 66.856 950.55 72.296 950.55 79.848C950.55 84.584 949.43 88.68 947.19 92.136C945.014 95.528 941.75 98.152 937.398 100.008L954.198 129H941.814ZM923.862 93.768C930.134 93.768 934.422 92.424 936.726 89.736C939.094 86.984 940.278 83.72 940.278 79.944C940.278 71.56 934.678 67.368 923.478 67.368H917.046V93.768H923.862ZM965.08 58.44H995.992V67.848H975.736V87.336H992.056V96.936H975.736V119.496H999.16V129H965.08V58.44ZM370.712 261.96C366.872 261.96 363.064 261.288 359.288 259.944C355.512 258.6 352.792 257.096 351.128 255.432L356.216 246.312C357.56 247.528 359.64 248.808 362.456 250.152C365.336 251.432 368.088 252.072 370.712 252.072C374.104 252.072 376.856 251.272 378.968 249.672C381.144 248.072 382.232 245.864 382.232 243.048C382.232 240.872 381.656 238.984 380.504 237.384C379.352 235.784 377.944 234.472 376.28 233.448C374.616 232.36 372.248 231.048 369.176 229.512C365.528 227.72 363.032 226.376 361.688 225.48C355.48 221.32 352.376 215.56 352.376 208.2C352.376 202.12 354.392 197.48 358.424 194.28C362.456 191.016 367.544 189.384 373.688 189.384C380.28 189.384 385.88 191.272 390.488 195.048L385.4 203.784C384.184 202.504 382.456 201.416 380.216 200.52C378.04 199.56 375.704 199.08 373.208 199.08C370.008 199.08 367.48 199.816 365.624 201.288C363.832 202.696 362.936 204.808 362.936 207.624C362.936 209.608 363.512 211.4 364.664 213C365.816 214.536 367.256 215.88 368.984 217.032C370.776 218.184 373.176 219.592 376.184 221.256C379.064 222.856 381.272 224.136 382.808 225.096C384.344 225.992 385.784 227.08 387.128 228.36C388.984 230.024 390.488 232.008 391.64 234.312C392.792 236.616 393.368 239.144 393.368 241.896C393.368 246.184 392.376 249.832 390.392 252.84C388.472 255.848 385.784 258.12 382.328 259.656C378.936 261.192 375.064 261.96 370.712 261.96ZM415.459 199.848H397.411V190.44H444.355V199.848H426.115V261H415.459V199.848ZM483.311 261.96C476.911 261.96 470.991 260.488 465.551 257.544C460.175 254.536 455.887 250.28 452.687 244.776C449.487 239.272 447.887 232.872 447.887 225.576C447.887 218.216 449.487 211.816 452.687 206.376C455.887 200.872 460.175 196.648 465.551 193.704C470.991 190.76 476.911 189.288 483.311 189.288C489.711 189.288 495.599 190.76 500.975 193.704C506.415 196.648 510.735 200.872 513.935 206.376C517.135 211.816 518.735 218.216 518.735 225.576C518.735 232.872 517.135 239.272 513.935 244.776C510.735 250.28 506.415 254.536 500.975 257.544C495.599 260.488 489.711 261.96 483.311 261.96ZM483.311 252.264C487.727 252.264 491.759 251.24 495.407 249.192C499.055 247.08 501.935 244.04 504.047 240.072C506.223 236.04 507.311 231.24 507.311 225.672C507.311 220.04 506.223 215.24 504.047 211.272C501.935 207.24 499.055 204.2 495.407 202.152C491.823 200.104 487.791 199.08 483.311 199.08C478.831 199.08 474.767 200.104 471.119 202.152C467.471 204.2 464.591 207.24 462.479 211.272C460.367 215.24 459.311 220.04 459.311 225.672C459.311 231.24 460.399 236.04 462.575 240.072C464.751 244.04 467.663 247.08 471.311 249.192C475.023 251.24 479.023 252.264 483.311 252.264ZM565.97 261L551.762 234.312C548.818 234.44 546.194 234.504 543.89 234.504H541.202V261H530.738V190.44H546.77C554.898 190.44 561.586 192.136 566.834 195.528C572.082 198.856 574.706 204.296 574.706 211.848C574.706 216.584 573.586 220.68 571.346 224.136C569.17 227.528 565.906 230.152 561.554 232.008L578.354 261H565.97ZM548.018 225.768C554.29 225.768 558.578 224.424 560.882 221.736C563.25 218.984 564.434 215.72 564.434 211.944C564.434 203.56 558.834 199.368 547.634 199.368H541.202V225.768H548.018ZM589.236 190.44H620.148V199.848H599.892V219.336H616.212V228.936H599.892V251.496H623.316V261H589.236V190.44Z"
    fill="black" />
  <defs>
    <filter id="filter0_d" x="70" y="31" width="200.333" height="253" filterUnits="userSpaceOnUse"
      color-interpolation-filters="sRGB">
      <feFlood flood-opacity="0" result="BackgroundImageFix" />
      <feColorMatrix in="SourceAlpha" type="matrix" values="0 0 0 0 0 0 0 0 0 0 0 0 0 0 0 0 0 0 127 0"
        result="hardAlpha" />
      <feOffset dy="4" />
      <feGaussianBlur stdDeviation="4" />
      <feComposite in2="hardAlpha" operator="out" />
      <feColorMatrix type="matrix" values="0 0 0 0 0 0 0 0 0 0 0 0 0 0 0 0 0 0 0.25 0" />
      <feBlend mode="normal" in2="BackgroundImageFix" result="effect1_dropShadow" />
      <feBlend mode="normal" in="SourceGraphic" in2="effect1_dropShadow" result="shape" />
    </filter>
  </defs>
</svg>