<svg xmlns="http://www.w3.org/2000/svg" width="1048.111083984375" height="314" fill="none" style=""><rect id="backgroundrect" width="100%" height="100%" x="0" y="0" fill="none" stroke="none" class="" style=""/>
  
  
  <defs>
    <filter id="filter0_d" x="70" y="31" width="200.33299255371094" height="253" filterUnits="userSpaceOnUse" color-interpolation-filters="sRGB">
      <feFlood flood-opacity="0" result="BackgroundImageFix"/>
      <feColorMatrix in="SourceAlpha" type="matrix" values="0 0 0 0 0 0 0 0 0 0 0 0 0 0 0 0 0 0 127 0" result="hardAlpha"/>
      <feOffset dy="4"/>
      <feGaussianBlur stdDeviation="4"/>
      <feComposite in2="hardAlpha" operator="out"/>
      <feColorMatrix type="matrix" values="0 0 0 0 0 0 0 0 0 0 0 0 0 0 0 0 0 0 0.25 0"/>
      <feBlend mode="normal" in2="BackgroundImageFix" result="effect1_dropShadow"/>
      <feBlend mode="normal" in="SourceGraphic" in2="effect1_dropShadow" result="shape"/>
    </filter>
  </defs>
<g class="currentLayer" style=""><title>Layer 1</title><g filter="url(#filter0_d)" id="svg_1" class="">
    <path d="M157.9447771949768,31.666666507720947 L250.11077719497683,125.71466650772095 L157.9447771949768,219.76166650772095 L65.7777771949768,125.71466650772095 L157.9447771949768,31.666666507720947 z" fill="#222222" id="svg_2"/>
    <rect x="65.77777862548828" y="125.71466827392578" width="184.33299255371094" height="142.95199584960938" fill="#222222" id="svg_3"/>
  </g><g filter="url(#filter0_d)" class="" id="svg_5">
    <path d="M157.9447771949768,31.666666507720947 L250.11077719497683,125.71466650772095 L157.9447771949768,219.76166650772095 L65.7777771949768,125.71466650772095 L157.9447771949768,31.666666507720947 z" fill="#222222" id="svg_7"/>
    <rect x="65.77777862548828" y="125.71466827392578" width="184.33299255371094" height="142.95199584960938" fill="#222222" id="svg_9"/>
  </g><path d="M368.0897771949768,55.01066650772095 L402.0737771949768,125.66666650772095 H389.6897771949768 L383.6417771949768,111.84266650772095 H351.2897771949768 L345.2417771949768,125.66666650772095 H333.2417771949768 L367.0337771949768,55.01066650772095 H368.0897771949768 zM363.2897771949768,85.05866650772094 L355.6097771949768,102.14666650772095 H379.4177771949768 L371.8337771949768,85.15466650772095 L367.7057771949768,75.45866650772095 H367.5137771949768 L363.2897771949768,85.05866650772094 zM443.2167771949768,125.66666650772095 L429.0087771949768,98.97866650772094 C426.0647771949768,99.10666650772094 423.4407771949768,99.17066650772095 421.1367771949768,99.17066650772095 H418.4487771949768 V125.66666650772095 H407.9847771949768 V55.106666507720945 H424.0167771949768 C432.1447771949768,55.106666507720945 438.83277719497687,56.80266650772095 444.0807771949768,60.194666507720946 C449.3287771949768,63.52266650772094 451.9527771949768,68.96266650772095 451.9527771949768,76.51466650772095 C451.9527771949768,81.25066650772095 450.83277719497687,85.34666650772095 448.5927771949768,88.80266650772094 C446.4167771949768,92.19466650772095 443.1527771949768,94.81866650772095 438.80077719497683,96.67466650772094 L455.6007771949768,125.66666650772095 H443.2167771949768 zM425.26477719497683,90.43466650772095 C431.5367771949768,90.43466650772095 435.82477719497683,89.09066650772095 438.1287771949768,86.40266650772095 C440.4967771949768,83.65066650772094 441.6807771949768,80.38666650772095 441.6807771949768,76.61066650772095 C441.6807771949768,68.22666650772095 436.0807771949768,64.03466650772094 424.8807771949768,64.03466650772094 H418.4487771949768 V90.43466650772095 H425.26477719497683 zM498.6427771949768,126.33866650772094 C491.3467771949768,126.33866650772094 485.0107771949768,124.70666650772094 479.63477719497683,121.44266650772094 C474.3227771949768,118.17866650772095 470.2587771949768,113.82666650772094 467.4427771949768,108.38666650772095 C464.6267771949768,102.88266650772094 463.2187771949768,96.83466650772095 463.2187771949768,90.24266650772094 C463.2187771949768,83.26666650772094 464.7227771949768,77.02666650772095 467.7307771949768,71.52266650772094 C470.8027771949768,66.01866650772095 475.0907771949768,61.73066650772094 480.5947771949768,58.658666507720945 C486.09877719497683,55.522666507720956 492.3387771949768,53.954666507720944 499.3147771949768,53.954666507720944 C502.4507771949768,53.954666507720944 505.36277719497684,54.30666650772095 508.05077719497683,55.01066650772095 C510.8027771949768,55.650666507720956 513.0747771949768,56.41866650772095 514.8667771949769,57.31466650772095 C516.6587771949768,58.146666507720944 517.8427771949769,58.850666507720945 518.4187771949768,59.426666507720945 L513.7147771949768,69.02666650772095 C509.8107771949768,65.57066650772094 504.72277719497686,63.84266650772095 498.4507771949768,63.84266650772095 C494.0347771949768,63.84266650772095 490.0347771949768,64.93066650772094 486.4507771949768,67.10666650772094 C482.8667771949768,69.28266650772095 480.05077719497683,72.38666650772095 478.00277719497683,76.41866650772094 C475.9547771949768,80.45066650772095 474.9307771949768,85.12266650772095 474.9307771949768,90.43466650772095 C474.9307771949768,95.29866650772095 475.8267771949768,99.71466650772095 477.6187771949768,103.68266650772095 C479.4747771949768,107.65066650772094 482.1627771949768,110.78666650772095 485.6827771949768,113.09066650772095 C489.2027771949768,115.39466650772094 493.3947771949768,116.54666650772094 498.2587771949768,116.54666650772094 C503.89077719497686,116.54666650772094 509.3307771949768,114.94666650772095 514.5787771949769,111.74666650772095 L517.7467771949769,120.86666650772095 C516.3387771949768,122.14666650772095 513.7467771949769,123.39466650772094 509.9707771949768,124.61066650772095 C506.2587771949768,125.76266650772095 502.48277719497685,126.33866650772094 498.6427771949768,126.33866650772094 zM528.8257771949768,55.106666507720945 H539.5777771949768 V83.90666650772094 H564.4417771949768 V55.106666507720945 H575.1937771949769 V125.66666650772095 H564.4417771949768 V92.93066650772094 H539.5777771949768 V125.66666650772095 H528.8257771949768 V55.106666507720945 zM591.2947771949769,55.106666507720945 H602.0467771949768 V125.66666650772095 H591.2947771949769 V55.106666507720945 zM631.7057771949768,64.51466650772095 H613.6577771949768 V55.106666507720945 H660.6017771949768 V64.51466650772095 H642.3617771949768 V125.66666650772095 H631.7057771949768 V64.51466650772095 zM670.8577771949768,55.106666507720945 H701.7697771949768 V64.51466650772095 H681.5137771949768 V84.00266650772095 H697.8337771949768 V93.60266650772095 H681.5137771949768 V116.16266650772094 H704.9377771949768 V125.66666650772095 H670.8577771949768 V55.106666507720945 zM747.8297771949768,126.33866650772094 C740.5337771949768,126.33866650772094 734.1977771949768,124.70666650772094 728.8217771949768,121.44266650772094 C723.5097771949768,118.17866650772095 719.4457771949768,113.82666650772094 716.6297771949768,108.38666650772095 C713.8137771949768,102.88266650772094 712.4057771949768,96.83466650772095 712.4057771949768,90.24266650772094 C712.4057771949768,83.26666650772094 713.9097771949768,77.02666650772095 716.9177771949768,71.52266650772094 C719.9897771949768,66.01866650772095 724.2777771949768,61.73066650772094 729.7817771949768,58.658666507720945 C735.2857771949768,55.522666507720956 741.5257771949769,53.954666507720944 748.5017771949769,53.954666507720944 C751.6377771949768,53.954666507720944 754.5497771949769,54.30666650772095 757.2377771949768,55.01066650772095 C759.9897771949768,55.650666507720956 762.2617771949768,56.41866650772095 764.0537771949768,57.31466650772095 C765.8457771949768,58.146666507720944 767.0297771949768,58.850666507720945 767.6057771949768,59.426666507720945 L762.9017771949768,69.02666650772095 C758.9977771949768,65.57066650772094 753.9097771949768,63.84266650772095 747.6377771949768,63.84266650772095 C743.2217771949768,63.84266650772095 739.2217771949768,64.93066650772094 735.6377771949768,67.10666650772094 C732.0537771949768,69.28266650772095 729.2377771949768,72.38666650772095 727.1897771949768,76.41866650772094 C725.1417771949768,80.45066650772095 724.1177771949768,85.12266650772095 724.1177771949768,90.43466650772095 C724.1177771949768,95.29866650772095 725.0137771949768,99.71466650772095 726.8057771949768,103.68266650772095 C728.6617771949768,107.65066650772094 731.3497771949768,110.78666650772095 734.8697771949768,113.09066650772095 C738.3897771949768,115.39466650772094 742.5817771949768,116.54666650772094 747.4457771949768,116.54666650772094 C753.0777771949768,116.54666650772094 758.5177771949768,114.94666650772095 763.7657771949769,111.74666650772095 L766.9337771949768,120.86666650772095 C765.5257771949769,122.14666650772095 762.9337771949768,123.39466650772094 759.1577771949768,124.61066650772095 C755.4457771949768,125.76266650772095 751.6697771949769,126.33866650772094 747.8297771949768,126.33866650772094 zM793.4247771949769,64.51466650772095 H775.3767771949769 V55.106666507720945 H822.3207771949768 V64.51466650772095 H804.0807771949768 V125.66666650772095 H793.4247771949769 V64.51466650772095 zM855.0847771949768,126.62666650772096 C846.2527771949768,126.62666650772096 839.8527771949769,123.97066650772095 835.8847771949768,118.65866650772095 C831.9167771949768,113.34666650772095 829.9327771949768,105.63466650772095 829.9327771949768,95.52266650772094 V55.106666507720945 H840.6847771949768 V95.71466650772095 C840.6847771949768,103.20266650772095 841.8047771949769,108.57866650772095 844.0447771949769,111.84266650772095 C846.2847771949768,115.04266650772095 849.9647771949768,116.64266650772095 855.0847771949768,116.64266650772095 C860.2047771949768,116.64266650772095 863.8527771949769,115.07466650772095 866.0287771949768,111.93866650772095 C868.2687771949768,108.73866650772095 869.3887771949768,103.33066650772095 869.3887771949768,95.71466650772095 V55.106666507720945 H880.2367771949768 V95.52266650772094 C880.2367771949768,105.57066650772094 878.1247771949768,113.28266650772095 873.9007771949769,118.65866650772095 C869.7407771949768,123.97066650772095 863.4687771949768,126.62666650772096 855.0847771949768,126.62666650772096 zM929.5917771949768,125.66666650772095 L915.3837771949768,98.97866650772094 C912.4397771949768,99.10666650772094 909.8157771949768,99.17066650772095 907.5117771949768,99.17066650772095 H904.8237771949769 V125.66666650772095 H894.3597771949768 V55.106666507720945 H910.3917771949768 C918.5197771949768,55.106666507720945 925.2077771949768,56.80266650772095 930.4557771949768,60.194666507720946 C935.7037771949769,63.52266650772094 938.3277771949768,68.96266650772095 938.3277771949768,76.51466650772095 C938.3277771949768,81.25066650772095 937.2077771949768,85.34666650772095 934.9677771949769,88.80266650772094 C932.7917771949768,92.19466650772095 929.5277771949768,94.81866650772095 925.1757771949768,96.67466650772094 L941.9757771949768,125.66666650772095 H929.5917771949768 zM911.6397771949768,90.43466650772095 C917.9117771949768,90.43466650772095 922.1997771949768,89.09066650772095 924.5037771949768,86.40266650772095 C926.8717771949769,83.65066650772094 928.0557771949768,80.38666650772095 928.0557771949768,76.61066650772095 C928.0557771949768,68.22666650772095 922.4557771949768,64.03466650772094 911.2557771949768,64.03466650772094 H904.8237771949769 V90.43466650772095 H911.6397771949768 zM952.8577771949768,55.106666507720945 H983.7697771949768 V64.51466650772095 H963.5137771949768 V84.00266650772095 H979.8337771949768 V93.60266650772095 H963.5137771949768 V116.16266650772094 H986.9377771949768 V125.66666650772095 H952.8577771949768 V55.106666507720945 zM358.4897771949768,258.6266665077209 C354.6497771949768,258.6266665077209 350.8417771949768,257.95466650772096 347.0657771949768,256.61066650772096 C343.2897771949768,255.26666650772097 340.5697771949768,253.76266650772095 338.9057771949768,252.09866650772094 L343.9937771949768,242.97866650772096 C345.3377771949768,244.19466650772094 347.4177771949768,245.47466650772094 350.2337771949768,246.81866650772093 C353.1137771949768,248.09866650772094 355.86577719497683,248.73866650772095 358.4897771949768,248.73866650772095 C361.8817771949768,248.73866650772095 364.6337771949768,247.93866650772094 366.7457771949768,246.33866650772094 C368.9217771949768,244.73866650772095 370.00977719497683,242.53066650772095 370.00977719497683,239.71466650772095 C370.00977719497683,237.53866650772096 369.4337771949768,235.65066650772096 368.2817771949768,234.05066650772093 C367.1297771949768,232.45066650772094 365.7217771949768,231.13866650772096 364.0577771949768,230.11466650772095 C362.3937771949768,229.02666650772096 360.0257771949768,227.71466650772095 356.9537771949768,226.17866650772095 C353.3057771949768,224.38666650772095 350.8097771949768,223.04266650772095 349.4657771949768,222.14666650772094 C343.2577771949768,217.98666650772094 340.1537771949768,212.22666650772095 340.1537771949768,204.86666650772094 C340.1537771949768,198.78666650772095 342.1697771949768,194.14666650772094 346.2017771949768,190.94666650772095 C350.2337771949768,187.68266650772094 355.3217771949768,186.05066650772093 361.4657771949768,186.05066650772093 C368.0577771949768,186.05066650772093 373.6577771949768,187.93866650772094 378.2657771949768,191.71466650772095 L373.1777771949768,200.45066650772094 C371.96177719497683,199.17066650772094 370.2337771949768,198.08266650772094 367.9937771949768,197.18666650772096 C365.8177771949768,196.22666650772095 363.4817771949768,195.74666650772096 360.98577719497683,195.74666650772096 C357.7857771949768,195.74666650772096 355.2577771949768,196.48266650772095 353.40177719497683,197.95466650772096 C351.6097771949768,199.36266650772095 350.7137771949768,201.47466650772094 350.7137771949768,204.29066650772094 C350.7137771949768,206.27466650772095 351.2897771949768,208.06666650772095 352.4417771949768,209.66666650772095 C353.5937771949768,211.20266650772095 355.0337771949768,212.54666650772094 356.7617771949768,213.69866650772096 C358.5537771949768,214.85066650772094 360.9537771949768,216.25866650772096 363.96177719497683,217.92266650772095 C366.8417771949768,219.52266650772094 369.0497771949768,220.80266650772094 370.5857771949768,221.76266650772095 C372.1217771949768,222.65866650772094 373.5617771949768,223.74666650772096 374.9057771949768,225.02666650772096 C376.7617771949768,226.69066650772095 378.2657771949768,228.67466650772096 379.4177771949768,230.97866650772096 C380.5697771949768,233.28266650772096 381.1457771949768,235.81066650772095 381.1457771949768,238.56266650772093 C381.1457771949768,242.85066650772094 380.1537771949768,246.49866650772094 378.1697771949768,249.50666650772098 C376.2497771949768,252.51466650772096 373.5617771949768,254.78666650772095 370.1057771949768,256.32266650772095 C366.7137771949768,257.85866650772095 362.8417771949768,258.6266665077209 358.4897771949768,258.6266665077209 zM403.2367771949768,196.51466650772096 H385.1887771949768 V187.10666650772094 H432.1327771949768 V196.51466650772096 H413.8927771949768 V257.66666650772095 H403.2367771949768 V196.51466650772096 zM471.0887771949768,258.6266665077209 C464.6887771949768,258.6266665077209 458.7687771949768,257.15466650772095 453.3287771949768,254.21066650772093 C447.9527771949768,251.20266650772095 443.6647771949768,246.94666650772095 440.4647771949768,241.44266650772096 C437.26477719497683,235.93866650772094 435.6647771949768,229.53866650772096 435.6647771949768,222.24266650772094 C435.6647771949768,214.88266650772096 437.26477719497683,208.48266650772095 440.4647771949768,203.04266650772095 C443.6647771949768,197.53866650772096 447.9527771949768,193.31466650772094 453.3287771949768,190.37066650772095 C458.7687771949768,187.42666650772094 464.6887771949768,185.95466650772096 471.0887771949768,185.95466650772096 C477.4887771949768,185.95466650772096 483.3767771949768,187.42666650772094 488.75277719497683,190.37066650772095 C494.1927771949768,193.31466650772094 498.5127771949768,197.53866650772096 501.71277719497675,203.04266650772095 C504.9127771949768,208.48266650772095 506.5127771949768,214.88266650772096 506.5127771949768,222.24266650772094 C506.5127771949768,229.53866650772096 504.9127771949768,235.93866650772094 501.71277719497675,241.44266650772096 C498.5127771949768,246.94666650772095 494.1927771949768,251.20266650772095 488.75277719497683,254.21066650772093 C483.3767771949768,257.15466650772095 477.4887771949768,258.6266665077209 471.0887771949768,258.6266665077209 zM471.0887771949768,248.93066650772096 C475.5047771949768,248.93066650772096 479.5367771949768,247.90666650772096 483.1847771949768,245.85866650772095 C486.83277719497687,243.74666650772096 489.7127771949768,240.70666650772094 491.82477719497683,236.73866650772095 C494.0007771949768,232.70666650772094 495.0887771949768,227.90666650772096 495.0887771949768,222.33866650772094 C495.0887771949768,216.70666650772094 494.0007771949768,211.90666650772096 491.82477719497683,207.93866650772094 C489.7127771949768,203.90666650772096 486.83277719497687,200.86666650772094 483.1847771949768,198.81866650772093 C479.6007771949768,196.77066650772096 475.5687771949768,195.74666650772096 471.0887771949768,195.74666650772096 C466.6087771949768,195.74666650772096 462.5447771949768,196.77066650772096 458.89677719497683,198.81866650772093 C455.2487771949768,200.86666650772094 452.3687771949768,203.90666650772096 450.2567771949768,207.93866650772094 C448.1447771949768,211.90666650772096 447.0887771949768,216.70666650772094 447.0887771949768,222.33866650772094 C447.0887771949768,227.90666650772096 448.1767771949768,232.70666650772094 450.3527771949768,236.73866650772095 C452.5287771949768,240.70666650772094 455.4407771949768,243.74666650772096 459.0887771949768,245.85866650772095 C462.80077719497683,247.90666650772096 466.80077719497683,248.93066650772096 471.0887771949768,248.93066650772096 zM553.7477771949768,257.66666650772095 L539.5397771949768,230.97866650772096 C536.5957771949768,231.10666650772094 533.9717771949768,231.17066650772094 531.6677771949768,231.17066650772094 H528.9797771949768 V257.66666650772095 H518.5157771949769 V187.10666650772094 H534.5477771949768 C542.6757771949768,187.10666650772094 549.3637771949768,188.80266650772094 554.6117771949768,192.19466650772094 C559.8597771949768,195.52266650772094 562.4837771949768,200.96266650772094 562.4837771949768,208.51466650772096 C562.4837771949768,213.25066650772095 561.3637771949768,217.34666650772095 559.1237771949768,220.80266650772094 C556.9477771949768,224.19466650772094 553.6837771949768,226.81866650772093 549.3317771949768,228.67466650772096 L566.1317771949768,257.66666650772095 H553.7477771949768 zM535.7957771949768,222.43466650772095 C542.0677771949768,222.43466650772095 546.3557771949768,221.09066650772095 548.6597771949768,218.40266650772094 C551.0277771949768,215.65066650772096 552.2117771949768,212.38666650772095 552.2117771949768,208.61066650772094 C552.2117771949768,200.22666650772095 546.6117771949768,196.03466650772094 535.4117771949768,196.03466650772094 H528.9797771949768 V222.43466650772095 H535.7957771949768 zM577.0137771949768,187.10666650772094 H607.9257771949768 V196.51466650772096 H587.6697771949769 V216.00266650772096 H603.9897771949768 V225.60266650772095 H587.6697771949769 V248.16266650772096 H611.0937771949768 V257.66666650772095 H577.0137771949768 V187.10666650772094 z" fill="#222222" id="svg_4" class=""/></g></svg>